<svg xmlns="http://www.w3.org/2000/svg" viewBox="0 0 300 52" fill="none"><defs><linearGradient id="letter" x2="0" y2="1"><stop stop-color="#fff1bd"/><stop offset=".48" stop-color="#efcb71"/><stop offset=".5" stop-color="#c38a37"/><stop offset="1" stop-color="#f5d47d"/></linearGradient></defs><g fill="#10191d" stroke="#10191d" stroke-width="3" transform="translate(2 3)"><rect x="8" y="8" width="4" height="4"/><rect x="12" y="8" width="4" height="4"/><rect x="16" y="8" width="4" height="4"/><rect x="12" y="12" width="4" height="4"/><rect x="12" y="16" width="4" height="4"/><rect x="12" y="20" width="4" height="4"/><rect x="12" y="24" width="4" height="4"/><rect x="12" y="28" width="4" height="4"/><rect x="8" y="32" width="4" height="4"/><rect x="12" y="32" width="4" height="4"/><rect x="16" y="32" width="4" height="4"/><rect x="24" y="8" width="4" height="4"/><rect x="40" y="8" width="4" height="4"/><rect x="24" y="12" width="4" height="4"/><rect x="28" y="12" width="4" height="4"/><rect x="40" y="12" width="4" height="4"/><rect x="24" y="16" width="4" height="4"/><rect x="28" y="16" width="4" height="4"/><rect x="40" y="16" width="4" height="4"/><rect x="24" y="20" width="4" height="4"/><rect x="32" y="20" width="4" height="4"/><rect x="40" y="20" width="4" height="4"/><rect x="24" y="24" width="4" height="4"/><rect x="36" y="24" width="4" height="4"/><rect x="40" y="24" width="4" height="4"/><rect x="24" y="28" width="4" height="4"/><rect x="36" y="28" width="4" height="4"/><rect x="40" y="28" width="4" height="4"/><rect x="24" y="32" width="4" height="4"/><rect x="40" y="32" width="4" height="4"/><rect x="66" y="8" width="4" height="4"/><rect x="70" y="8" width="4" height="4"/><rect x="74" y="8" width="4" height="4"/><rect x="78" y="8" width="4" height="4"/><rect x="62" y="12" width="4" height="4"/><rect x="62" y="16" width="4" height="4"/><rect x="66" y="20" width="4" height="4"/><rect x="70" y="20" width="4" height="4"/><rect x="74" y="20" width="4" height="4"/><rect x="78" y="24" width="4" height="4"/><rect x="78" y="28" width="4" height="4"/><rect x="62" y="32" width="4" height="4"/><rect x="66" y="32" width="4" height="4"/><rect x="70" y="32" width="4" height="4"/><rect x="74" y="32" width="4" height="4"/><rect x="86" y="8" width="4" height="4"/><rect x="90" y="8" width="4" height="4"/><rect x="94" y="8" width="4" height="4"/><rect x="98" y="8" width="4" height="4"/><rect x="102" y="8" width="4" height="4"/><rect x="86" y="12" width="4" height="4"/><rect x="86" y="16" width="4" height="4"/><rect x="86" y="20" width="4" height="4"/><rect x="90" y="20" width="4" height="4"/><rect x="94" y="20" width="4" height="4"/><rect x="98" y="20" width="4" height="4"/><rect x="86" y="24" width="4" height="4"/><rect x="86" y="28" width="4" height="4"/><rect x="86" y="32" width="4" height="4"/><rect x="90" y="32" width="4" height="4"/><rect x="94" y="32" width="4" height="4"/><rect x="98" y="32" width="4" height="4"/><rect x="102" y="32" width="4" height="4"/><rect x="114" y="8" width="4" height="4"/><rect x="118" y="8" width="4" height="4"/><rect x="122" y="8" width="4" height="4"/><rect x="110" y="12" width="4" height="4"/><rect x="126" y="12" width="4" height="4"/><rect x="110" y="16" width="4" height="4"/><rect x="126" y="16" width="4" height="4"/><rect x="110" y="20" width="4" height="4"/><rect x="114" y="20" width="4" height="4"/><rect x="118" y="20" width="4" height="4"/><rect x="122" y="20" width="4" height="4"/><rect x="126" y="20" width="4" height="4"/><rect x="110" y="24" width="4" height="4"/><rect x="126" y="24" width="4" height="4"/><rect x="110" y="28" width="4" height="4"/><rect x="126" y="28" width="4" height="4"/><rect x="110" y="32" width="4" height="4"/><rect x="126" y="32" width="4" height="4"/><rect x="138" y="8" width="4" height="4"/><rect x="142" y="8" width="4" height="4"/><rect x="146" y="8" width="4" height="4"/><rect x="150" y="8" width="4" height="4"/><rect x="134" y="12" width="4" height="4"/><rect x="134" y="16" width="4" height="4"/><rect x="138" y="20" width="4" height="4"/><rect x="142" y="20" width="4" height="4"/><rect x="146" y="20" width="4" height="4"/><rect x="150" y="24" width="4" height="4"/><rect x="150" y="28" width="4" height="4"/><rect x="134" y="32" width="4" height="4"/><rect x="138" y="32" width="4" height="4"/><rect x="142" y="32" width="4" height="4"/><rect x="146" y="32" width="4" height="4"/><rect x="162" y="8" width="4" height="4"/><rect x="166" y="8" width="4" height="4"/><rect x="170" y="8" width="4" height="4"/><rect x="158" y="12" width="4" height="4"/><rect x="174" y="12" width="4" height="4"/><rect x="158" y="16" width="4" height="4"/><rect x="174" y="16" width="4" height="4"/><rect x="158" y="20" width="4" height="4"/><rect x="174" y="20" width="4" height="4"/><rect x="158" y="24" width="4" height="4"/><rect x="174" y="24" width="4" height="4"/><rect x="158" y="28" width="4" height="4"/><rect x="174" y="28" width="4" height="4"/><rect x="162" y="32" width="4" height="4"/><rect x="166" y="32" width="4" height="4"/><rect x="170" y="32" width="4" height="4"/><rect x="182" y="8" width="4" height="4"/><rect x="198" y="8" width="4" height="4"/><rect x="182" y="12" width="4" height="4"/><rect x="186" y="12" width="4" height="4"/><rect x="198" y="12" width="4" height="4"/><rect x="182" y="16" width="4" height="4"/><rect x="186" y="16" width="4" height="4"/><rect x="198" y="16" width="4" height="4"/><rect x="182" y="20" width="4" height="4"/><rect x="190" y="20" width="4" height="4"/><rect x="198" y="20" width="4" height="4"/><rect x="182" y="24" width="4" height="4"/><rect x="194" y="24" width="4" height="4"/><rect x="198" y="24" width="4" height="4"/><rect x="182" y="28" width="4" height="4"/><rect x="194" y="28" width="4" height="4"/><rect x="198" y="28" width="4" height="4"/><rect x="182" y="32" width="4" height="4"/><rect x="198" y="32" width="4" height="4"/><rect x="224" y="8" width="4" height="4"/><rect x="228" y="8" width="4" height="4"/><rect x="232" y="8" width="4" height="4"/><rect x="236" y="8" width="4" height="4"/><rect x="220" y="12" width="4" height="4"/><rect x="220" y="16" width="4" height="4"/><rect x="220" y="20" width="4" height="4"/><rect x="220" y="24" width="4" height="4"/><rect x="220" y="28" width="4" height="4"/><rect x="224" y="32" width="4" height="4"/><rect x="228" y="32" width="4" height="4"/><rect x="232" y="32" width="4" height="4"/><rect x="236" y="32" width="4" height="4"/><rect x="244" y="8" width="4" height="4"/><rect x="260" y="8" width="4" height="4"/><rect x="244" y="12" width="4" height="4"/><rect x="260" y="12" width="4" height="4"/><rect x="244" y="16" width="4" height="4"/><rect x="260" y="16" width="4" height="4"/><rect x="244" y="20" width="4" height="4"/><rect x="260" y="20" width="4" height="4"/><rect x="244" y="24" width="4" height="4"/><rect x="260" y="24" width="4" height="4"/><rect x="244" y="28" width="4" height="4"/><rect x="260" y="28" width="4" height="4"/><rect x="248" y="32" width="4" height="4"/><rect x="252" y="32" width="4" height="4"/><rect x="256" y="32" width="4" height="4"/><rect x="268" y="8" width="4" height="4"/><rect x="272" y="8" width="4" height="4"/><rect x="276" y="8" width="4" height="4"/><rect x="280" y="8" width="4" height="4"/><rect x="268" y="12" width="4" height="4"/><rect x="284" y="12" width="4" height="4"/><rect x="268" y="16" width="4" height="4"/><rect x="284" y="16" width="4" height="4"/><rect x="268" y="20" width="4" height="4"/><rect x="272" y="20" width="4" height="4"/><rect x="276" y="20" width="4" height="4"/><rect x="280" y="20" width="4" height="4"/><rect x="268" y="24" width="4" height="4"/><rect x="268" y="28" width="4" height="4"/><rect x="268" y="32" width="4" height="4"/></g><g fill="url(#letter)"><rect x="8" y="8" width="4" height="4"/><rect x="12" y="8" width="4" height="4"/><rect x="16" y="8" width="4" height="4"/><rect x="12" y="12" width="4" height="4"/><rect x="12" y="16" width="4" height="4"/><rect x="12" y="20" width="4" height="4"/><rect x="12" y="24" width="4" height="4"/><rect x="12" y="28" width="4" height="4"/><rect x="8" y="32" width="4" height="4"/><rect x="12" y="32" width="4" height="4"/><rect x="16" y="32" width="4" height="4"/><rect x="24" y="8" width="4" height="4"/><rect x="40" y="8" width="4" height="4"/><rect x="24" y="12" width="4" height="4"/><rect x="28" y="12" width="4" height="4"/><rect x="40" y="12" width="4" height="4"/><rect x="24" y="16" width="4" height="4"/><rect x="28" y="16" width="4" height="4"/><rect x="40" y="16" width="4" height="4"/><rect x="24" y="20" width="4" height="4"/><rect x="32" y="20" width="4" height="4"/><rect x="40" y="20" width="4" height="4"/><rect x="24" y="24" width="4" height="4"/><rect x="36" y="24" width="4" height="4"/><rect x="40" y="24" width="4" height="4"/><rect x="24" y="28" width="4" height="4"/><rect x="36" y="28" width="4" height="4"/><rect x="40" y="28" width="4" height="4"/><rect x="24" y="32" width="4" height="4"/><rect x="40" y="32" width="4" height="4"/><rect x="66" y="8" width="4" height="4"/><rect x="70" y="8" width="4" height="4"/><rect x="74" y="8" width="4" height="4"/><rect x="78" y="8" width="4" height="4"/><rect x="62" y="12" width="4" height="4"/><rect x="62" y="16" width="4" height="4"/><rect x="66" y="20" width="4" height="4"/><rect x="70" y="20" width="4" height="4"/><rect x="74" y="20" width="4" height="4"/><rect x="78" y="24" width="4" height="4"/><rect x="78" y="28" width="4" height="4"/><rect x="62" y="32" width="4" height="4"/><rect x="66" y="32" width="4" height="4"/><rect x="70" y="32" width="4" height="4"/><rect x="74" y="32" width="4" height="4"/><rect x="86" y="8" width="4" height="4"/><rect x="90" y="8" width="4" height="4"/><rect x="94" y="8" width="4" height="4"/><rect x="98" y="8" width="4" height="4"/><rect x="102" y="8" width="4" height="4"/><rect x="86" y="12" width="4" height="4"/><rect x="86" y="16" width="4" height="4"/><rect x="86" y="20" width="4" height="4"/><rect x="90" y="20" width="4" height="4"/><rect x="94" y="20" width="4" height="4"/><rect x="98" y="20" width="4" height="4"/><rect x="86" y="24" width="4" height="4"/><rect x="86" y="28" width="4" height="4"/><rect x="86" y="32" width="4" height="4"/><rect x="90" y="32" width="4" height="4"/><rect x="94" y="32" width="4" height="4"/><rect x="98" y="32" width="4" height="4"/><rect x="102" y="32" width="4" height="4"/><rect x="114" y="8" width="4" height="4"/><rect x="118" y="8" width="4" height="4"/><rect x="122" y="8" width="4" height="4"/><rect x="110" y="12" width="4" height="4"/><rect x="126" y="12" width="4" height="4"/><rect x="110" y="16" width="4" height="4"/><rect x="126" y="16" width="4" height="4"/><rect x="110" y="20" width="4" height="4"/><rect x="114" y="20" width="4" height="4"/><rect x="118" y="20" width="4" height="4"/><rect x="122" y="20" width="4" height="4"/><rect x="126" y="20" width="4" height="4"/><rect x="110" y="24" width="4" height="4"/><rect x="126" y="24" width="4" height="4"/><rect x="110" y="28" width="4" height="4"/><rect x="126" y="28" width="4" height="4"/><rect x="110" y="32" width="4" height="4"/><rect x="126" y="32" width="4" height="4"/><rect x="138" y="8" width="4" height="4"/><rect x="142" y="8" width="4" height="4"/><rect x="146" y="8" width="4" height="4"/><rect x="150" y="8" width="4" height="4"/><rect x="134" y="12" width="4" height="4"/><rect x="134" y="16" width="4" height="4"/><rect x="138" y="20" width="4" height="4"/><rect x="142" y="20" width="4" height="4"/><rect x="146" y="20" width="4" height="4"/><rect x="150" y="24" width="4" height="4"/><rect x="150" y="28" width="4" height="4"/><rect x="134" y="32" width="4" height="4"/><rect x="138" y="32" width="4" height="4"/><rect x="142" y="32" width="4" height="4"/><rect x="146" y="32" width="4" height="4"/><rect x="162" y="8" width="4" height="4"/><rect x="166" y="8" width="4" height="4"/><rect x="170" y="8" width="4" height="4"/><rect x="158" y="12" width="4" height="4"/><rect x="174" y="12" width="4" height="4"/><rect x="158" y="16" width="4" height="4"/><rect x="174" y="16" width="4" height="4"/><rect x="158" y="20" width="4" height="4"/><rect x="174" y="20" width="4" height="4"/><rect x="158" y="24" width="4" height="4"/><rect x="174" y="24" width="4" height="4"/><rect x="158" y="28" width="4" height="4"/><rect x="174" y="28" width="4" height="4"/><rect x="162" y="32" width="4" height="4"/><rect x="166" y="32" width="4" height="4"/><rect x="170" y="32" width="4" height="4"/><rect x="182" y="8" width="4" height="4"/><rect x="198" y="8" width="4" height="4"/><rect x="182" y="12" width="4" height="4"/><rect x="186" y="12" width="4" height="4"/><rect x="198" y="12" width="4" height="4"/><rect x="182" y="16" width="4" height="4"/><rect x="186" y="16" width="4" height="4"/><rect x="198" y="16" width="4" height="4"/><rect x="182" y="20" width="4" height="4"/><rect x="190" y="20" width="4" height="4"/><rect x="198" y="20" width="4" height="4"/><rect x="182" y="24" width="4" height="4"/><rect x="194" y="24" width="4" height="4"/><rect x="198" y="24" width="4" height="4"/><rect x="182" y="28" width="4" height="4"/><rect x="194" y="28" width="4" height="4"/><rect x="198" y="28" width="4" height="4"/><rect x="182" y="32" width="4" height="4"/><rect x="198" y="32" width="4" height="4"/><rect x="224" y="8" width="4" height="4"/><rect x="228" y="8" width="4" height="4"/><rect x="232" y="8" width="4" height="4"/><rect x="236" y="8" width="4" height="4"/><rect x="220" y="12" width="4" height="4"/><rect x="220" y="16" width="4" height="4"/><rect x="220" y="20" width="4" height="4"/><rect x="220" y="24" width="4" height="4"/><rect x="220" y="28" width="4" height="4"/><rect x="224" y="32" width="4" height="4"/><rect x="228" y="32" width="4" height="4"/><rect x="232" y="32" width="4" height="4"/><rect x="236" y="32" width="4" height="4"/><rect x="244" y="8" width="4" height="4"/><rect x="260" y="8" width="4" height="4"/><rect x="244" y="12" width="4" height="4"/><rect x="260" y="12" width="4" height="4"/><rect x="244" y="16" width="4" height="4"/><rect x="260" y="16" width="4" height="4"/><rect x="244" y="20" width="4" height="4"/><rect x="260" y="20" width="4" height="4"/><rect x="244" y="24" width="4" height="4"/><rect x="260" y="24" width="4" height="4"/><rect x="244" y="28" width="4" height="4"/><rect x="260" y="28" width="4" height="4"/><rect x="248" y="32" width="4" height="4"/><rect x="252" y="32" width="4" height="4"/><rect x="256" y="32" width="4" height="4"/><rect x="268" y="8" width="4" height="4"/><rect x="272" y="8" width="4" height="4"/><rect x="276" y="8" width="4" height="4"/><rect x="280" y="8" width="4" height="4"/><rect x="268" y="12" width="4" height="4"/><rect x="284" y="12" width="4" height="4"/><rect x="268" y="16" width="4" height="4"/><rect x="284" y="16" width="4" height="4"/><rect x="268" y="20" width="4" height="4"/><rect x="272" y="20" width="4" height="4"/><rect x="276" y="20" width="4" height="4"/><rect x="280" y="20" width="4" height="4"/><rect x="268" y="24" width="4" height="4"/><rect x="268" y="28" width="4" height="4"/><rect x="268" y="32" width="4" height="4"/></g><path d="M8 43H284" stroke="#b95043" stroke-width="3"/><path d="M134.0 43H158.0" stroke="#e3c073" stroke-width="5"/></svg>
